<?xml version="1.0" encoding="UTF-8"?><svg id="Livello_1" xmlns="http://www.w3.org/2000/svg" viewBox="0 0 187.09 74.52"><defs><style>.cls-1{fill:#9e9d9c;}.cls-2{fill:#cc1c17;}.cls-3{fill:#c83729;}.cls-4{fill:#3e4040;}.cls-5{fill:gray;}</style></defs><path class="cls-1" d="m185.17,23.3H.51c1.06,0,1.92.86,1.92,1.92s-.86,1.92-1.92,1.92h184.66c1.06,0,1.92-.86,1.92-1.92s-.86-1.92-1.92-1.92"/><path class="cls-3" d="m38.98,21.05c-.45-.36-1.07-.6-1.86-.72-.77-.12-1.79-.18-3.03-.18h-.56c-1.24,0-2.25.06-3.03.18-.79.12-1.42.37-1.87.72-.46.36-.77.88-.93,1.53-.15.63-.23,1.47-.23,2.48v.3c0,1.01.08,1.85.23,2.48.16.65.47,1.17.92,1.53.45.37,1.08.61,1.88.74.78.12,1.8.18,3.03.18h.56c1.24,0,2.26-.06,3.03-.18.8-.12,1.42-.37,1.87-.74.44-.37.75-.88.91-1.53.15-.63.23-1.47.23-2.48v-.3c0-1.01-.08-1.85-.23-2.48-.16-.65-.47-1.16-.92-1.53"/><path class="cls-4" d="m151.96,59.39h1.41c.17,0,.31-.14.31-.31v-1.6c0-.17-.14-.31-.31-.31h-1.41c-.17,0-.31.14-.31.31v1.6c0,.17.14.31.31.31"/><path class="cls-4" d="m10.1,57.33h-2.19c-.11,0-.21.06-.26.15L.04,70.68c-.12.2.03.45.26.45h1.74l1.67-2.97h10.37l1.61,2.97h1.78c.23,0,.38-.25.26-.45l-7.37-13.19c-.05-.1-.15-.16-.26-.16m-1.09,1.62l4.17,7.59H4.64l4.35-7.59h.02Z"/><path class="cls-4" d="m87.43,71.18c.12,0,.24-.07.28-.19l5.22-11.99h.05l5.3,12.18h1.74c.23,0,.38-.25.26-.45l-5.96-13.19c-.05-.09-.15-.15-.26-.15h-2.19c-.11,0-.21.06-.26.15l-4.93,10.92-4.93-10.92c-.05-.09-.16-.15-.26-.15h-2.19c-.11,0-.21.06-.26.15l-5.96,13.19c-.12.2.03.45.26.45h1.74l5.3-12.18h.05l5.22,11.99c.05.11.16.19.29.19h1.53Z"/><path class="cls-4" d="m29.26,66.43c0,.63-.08,1.15-.24,1.55-.16.39-.4.7-.72.92-.33.23-.75.39-1.27.48-.53.09-1.16.14-1.88.14h-.3c-.81,0-1.47-.05-1.95-.14-.46-.09-.83-.25-1.08-.48-.25-.22-.42-.54-.5-.93-.08-.41-.13-.96-.13-1.63v-4.88c0-.17-.14-.3-.3-.3h-1.37c-.17,0-.3.13-.3.3v5.3c0,.84.08,1.56.22,2.11.15.58.43,1.04.83,1.37.39.33.93.57,1.6.7.66.13,1.5.19,2.51.19h.3c.76,0,1.41-.04,1.94-.13.53-.09.99-.22,1.36-.39.37-.17.68-.4.91-.67.13-.15.24-.32.35-.49v1.22c0,.17.14.3.3.3h1.37c.17,0,.3-.14.3-.3v-9.22c0-.17-.14-.3-.3-.3h-1.37c-.17,0-.3.13-.3.3v4.98Z"/><path class="cls-4" d="m44.38,62.35c-.11-.18-.25-.33-.4-.46-.25-.22-.57-.4-.95-.53-.37-.13-.82-.22-1.34-.27-.51-.05-1.12-.08-1.81-.08h-.36c-1.12,0-2.04.06-2.75.18-.72.12-1.3.37-1.73.73-.42.36-.72.87-.88,1.52-.15.63-.23,1.47-.23,2.48v.26c0,1,.07,1.83.22,2.47.15.66.44,1.17.86,1.54.42.37.99.62,1.73.76.72.13,1.65.2,2.78.2h.3c.73,0,1.37-.03,1.89-.08.53-.05.99-.15,1.38-.29.39-.14.71-.33.95-.56.15-.14.28-.3.4-.48v.95c0,.17.13.3.3.3h1.31c.17,0,.3-.14.3-.3v-13.19c0-.17-.13-.3-.3-.3h-1.37c-.17,0-.3.14-.3.3v4.87Zm-.13,1.77c.1.44.15,1.04.15,1.78v.26c0,.74-.05,1.34-.15,1.78-.09.42-.28.75-.55.98-.28.24-.68.39-1.21.47-.54.08-1.27.12-2.18.12h-.48c-.87,0-1.57-.04-2.1-.13-.51-.08-.9-.24-1.17-.47-.26-.22-.44-.55-.52-.98-.09-.45-.14-1.04-.14-1.77v-.26c0-.73.05-1.32.14-1.76.09-.42.26-.74.52-.96.27-.22.66-.37,1.16-.45.52-.08,1.23-.12,2.11-.12h.48c.89,0,1.62.04,2.17.11.53.07.94.22,1.22.44.27.22.46.54.55.96"/><path class="cls-4" d="m126.98,62.35c-.11-.18-.25-.33-.4-.46-.25-.22-.57-.4-.95-.53-.37-.13-.83-.22-1.34-.27-.51-.05-1.12-.08-1.81-.08h-.36c-1.12,0-2.04.06-2.75.18-.72.12-1.31.37-1.73.73-.42.36-.72.87-.88,1.52-.15.63-.23,1.47-.23,2.48v.26c0,1,.07,1.83.22,2.47.15.66.44,1.17.86,1.54.42.37.99.62,1.72.76.72.13,1.65.2,2.78.2h.3c.73,0,1.37-.03,1.89-.08.53-.05,1-.15,1.38-.29.39-.14.71-.33.95-.56.15-.14.28-.3.4-.48v.95c0,.17.13.3.3.3h1.31c.17,0,.3-.14.3-.3v-13.19c0-.17-.13-.3-.3-.3h-1.37c-.17,0-.3.14-.3.3v4.87Zm-.13,1.77c.1.44.15,1.04.15,1.78v.26c0,.74-.05,1.34-.15,1.78-.09.42-.28.75-.55.98-.28.24-.68.39-1.21.47-.54.08-1.27.12-2.18.12h-.48c-.86,0-1.57-.04-2.1-.13-.51-.08-.9-.24-1.17-.47-.26-.22-.44-.55-.52-.98-.09-.45-.14-1.04-.14-1.77v-.26c0-.73.05-1.32.14-1.76.09-.42.26-.74.52-.96.26-.22.65-.37,1.16-.45.52-.08,1.23-.12,2.11-.12h.48c.89,0,1.62.04,2.17.11.53.07.94.22,1.22.44.27.22.46.54.55.96"/><path class="cls-4" d="m49.5,71.13h1.37c.17,0,.3-.13.3-.3v-9.21c0-.17-.13-.3-.3-.3h-1.37c-.17,0-.3.14-.3.3v9.21c0,.17.14.3.3.3"/><path class="cls-4" d="m49.48,59.39h1.41c.17,0,.31-.14.31-.31v-1.6c0-.17-.14-.31-.31-.31h-1.41c-.17,0-.31.14-.31.31v1.6c0,.17.14.31.31.31"/><path class="cls-4" d="m65.51,61.9c-.45-.36-1.07-.6-1.86-.72-.77-.12-1.79-.18-3.02-.18h-.56c-1.24,0-2.25.06-3.02.18-.79.12-1.42.37-1.87.72-.46.36-.77.88-.93,1.53-.15.63-.23,1.47-.23,2.48v.3c0,1.01.08,1.85.23,2.48.16.65.47,1.17.92,1.53.45.37,1.08.61,1.88.74.78.12,1.8.18,3.03.18h.56c1.23,0,2.26-.06,3.03-.18.8-.12,1.42-.37,1.87-.74.44-.37.75-.88.91-1.53.15-.63.23-1.47.23-2.48v-.3c0-1.01-.08-1.85-.23-2.48-.16-.65-.47-1.16-.92-1.53m-.82,4v.3c0,.74-.05,1.34-.14,1.78-.08.42-.26.74-.54.96-.28.22-.68.37-1.21.45-.55.08-1.29.12-2.22.12h-.48c-.93,0-1.68-.04-2.23-.12-.54-.07-.95-.23-1.22-.45-.27-.22-.45-.54-.54-.96-.09-.44-.14-1.04-.14-1.78v-.3c0-.74.05-1.34.14-1.78.09-.42.27-.74.54-.96.28-.22.69-.37,1.22-.45.55-.08,1.3-.12,2.23-.12h.48c.93,0,1.67.04,2.22.12.53.07.94.23,1.21.45.27.22.45.54.54.96.09.44.14,1.04.14,1.78"/><path class="cls-4" d="m112.94,61.9c-.45-.36-1.07-.6-1.86-.72-.77-.12-1.79-.18-3.03-.18h-.56c-1.24,0-2.25.06-3.03.18-.79.12-1.42.37-1.87.72-.46.36-.77.88-.93,1.53-.15.63-.23,1.46-.23,2.48v.3c0,1.02.08,1.85.23,2.48.16.65.47,1.16.92,1.53.45.37,1.08.61,1.87.74.78.12,1.8.18,3.04.18h.56c1.24,0,2.26-.06,3.04-.18.8-.12,1.42-.37,1.86-.74.44-.37.75-.88.91-1.53.15-.63.23-1.47.23-2.48v-.3c0-1.01-.08-1.85-.23-2.48-.16-.65-.47-1.16-.92-1.53m-.82,4v.3c0,.74-.04,1.34-.14,1.78-.09.42-.27.74-.54.96-.28.22-.69.37-1.21.45-.55.08-1.29.12-2.22.12h-.48c-.93,0-1.68-.04-2.23-.12-.53-.07-.95-.23-1.22-.45-.27-.22-.45-.54-.54-.96-.09-.44-.14-1.04-.14-1.78v-.3c0-.74.05-1.34.14-1.78.09-.42.27-.74.54-.96.28-.22.69-.37,1.22-.45.55-.08,1.3-.12,2.23-.12h.48c.93,0,1.67.04,2.22.12.53.07.94.23,1.21.45.27.22.45.54.54.96.09.44.14,1.04.14,1.78"/><path class="cls-4" d="m146.89,71.13h1.37c.17,0,.3-.13.3-.3v-13.19c0-.17-.13-.3-.3-.3h-1.37c-.17,0-.3.14-.3.3v13.19c0,.17.14.3.3.3"/><path class="cls-4" d="m151.98,71.13h1.37c.17,0,.3-.13.3-.3v-9.21c0-.17-.14-.3-.3-.3h-1.37c-.17,0-.3.14-.3.3v9.21c0,.17.13.3.3.3"/><path class="cls-4" d="m167.4,62.01c-.4-.32-.93-.55-1.6-.68-.65-.12-1.49-.18-2.49-.18h-.32c-.76,0-1.41.04-1.93.13-.53.09-.98.22-1.34.39-.37.17-.67.39-.91.66-.14.16-.27.33-.39.52v-1.23c0-.17-.13-.3-.3-.3h-1.37c-.17,0-.3.13-.3.3v9.21c0,.17.14.3.3.3h1.37c.17,0,.3-.14.3-.3v-4.98c0-.6.08-1.11.24-1.5.15-.39.4-.69.73-.91.33-.23.76-.39,1.27-.48.52-.09,1.16-.14,1.89-.14h.3c.8,0,1.45.04,1.93.13.46.08.83.23,1.08.44.25.2.41.5.49.89.08.41.13.94.13,1.58v4.98c0,.17.14.3.3.3h1.37c.17,0,.3-.14.3-.3v-5.36c0-.86-.08-1.57-.22-2.11-.15-.56-.43-1.01-.83-1.34"/><path class="cls-4" d="m143.43,67.44h-1.28c-.16,0-.3.13-.3.3h0s0,0,0,0h0c0,.37-.05.67-.14.9-.09.22-.25.4-.51.53-.26.14-.65.24-1.14.29-.5.06-1.17.09-1.98.09h-.38c-.9,0-1.64-.04-2.19-.12-.53-.08-.95-.22-1.23-.43-.28-.21-.47-.51-.57-.89-.1-.41-.16-.94-.16-1.59v-.09h10.11v-1.29c0-.78-.08-1.44-.24-1.96-.16-.54-.46-.97-.89-1.3-.43-.32-1.02-.56-1.77-.69-.74-.13-1.69-.2-2.85-.2h-.48c-1.15,0-2.12.07-2.87.2-.76.14-1.37.39-1.81.76-.44.37-.76.88-.93,1.53-.17.63-.25,1.45-.25,2.44v.24c0,1,.08,1.83.24,2.47.17.66.48,1.18.94,1.54.46.36,1.09.62,1.88.75.78.13,1.8.2,3.02.2h.52c1.02,0,1.89-.05,2.59-.15.7-.1,1.28-.28,1.72-.53.45-.26.77-.61.96-1.05.19-.43.28-.97.28-1.61v-.06c0-.17-.13-.3-.3-.3m-9.68-3.66c.09-.33.27-.57.53-.76.27-.19.67-.32,1.19-.39.53-.07,1.25-.11,2.14-.11h.28c.88,0,1.58.04,2.1.12.5.08.89.2,1.15.38.25.17.42.39.49.68.08.3.12.68.12,1.14v.17h-8.17c.02-.5.07-.91.16-1.22"/><path class="cls-4" d="m183.28,61.16h-1.35c-.17,0-.3.13-.3.3v.93c-.13-.19-.27-.35-.44-.5-.26-.23-.59-.41-.97-.54-.37-.13-.82-.22-1.34-.27-.52-.05-1.12-.08-1.82-.08h-.3c-1.1,0-2.02.06-2.72.18-.72.12-1.29.36-1.7.69-.42.34-.71.82-.87,1.41-.15.58-.23,1.34-.23,2.26v.26c0,.91.08,1.66.23,2.24.16.6.46,1.07.89,1.41.43.34,1.01.57,1.72.69.7.12,1.62.18,2.72.18h.32c.73,0,1.37-.03,1.89-.1.53-.07.98-.17,1.34-.32.37-.14.67-.34.9-.57.13-.13.26-.29.36-.45v.87c0,.7-.04,1.27-.13,1.68-.08.39-.25.69-.53.89-.28.21-.69.35-1.24.41-.56.07-1.33.1-2.27.1h-.56c-.76,0-1.38-.02-1.84-.07-.45-.04-.81-.12-1.05-.24-.23-.1-.38-.24-.45-.41-.08-.18-.12-.42-.12-.7h0c0-.16-.14-.29-.3-.29h-1.37c-.17,0-.3.14-.3.3v.06h0c0,.64.09,1.16.27,1.55.19.4.5.72.93.94.42.21.98.35,1.67.42.68.07,1.54.1,2.56.1h.56c1.22,0,2.24-.06,3.02-.17.8-.12,1.43-.35,1.89-.7.47-.36.79-.87.97-1.52.17-.64.25-1.5.25-2.55v-8.11c0-.17-.14-.3-.3-.3m-1.68,4.61c0,.62-.05,1.13-.15,1.52-.09.37-.27.65-.56.86-.28.21-.7.36-1.22.44-.54.09-1.26.13-2.13.13h-.44c-.86,0-1.56-.04-2.07-.12-.5-.08-.89-.22-1.16-.43-.26-.2-.44-.5-.53-.87-.09-.39-.14-.91-.14-1.53v-.26c0-.62.05-1.13.14-1.52.09-.36.26-.65.53-.85.27-.2.66-.34,1.16-.41.52-.07,1.22-.11,2.08-.11h.44c.88,0,1.6.04,2.14.12.52.08.93.22,1.21.43.27.21.46.49.56.85.1.38.15.88.15,1.49v.26Z"/><path class="cls-5" d="m185.17,23.3H.51c1.06,0,1.92.86,1.92,1.92s-.86,1.92-1.92,1.92h184.66c1.06,0,1.92-.86,1.92-1.92s-.86-1.92-1.92-1.92"/><path class="cls-2" d="m38.98,21.05c-.45-.36-1.07-.6-1.86-.72-.77-.12-1.79-.18-3.03-.18h-.56c-1.24,0-2.25.06-3.03.18-.79.12-1.42.37-1.87.72-.46.36-.77.88-.93,1.53-.15.63-.23,1.47-.23,2.48v.3c0,1.01.08,1.85.23,2.48.16.65.47,1.17.92,1.53.45.37,1.08.61,1.88.74.78.12,1.8.18,3.03.18h.56c1.24,0,2.26-.06,3.03-.18.8-.12,1.42-.37,1.87-.74.44-.37.75-.88.91-1.53.15-.63.23-1.47.23-2.48v-.3c0-1.01-.08-1.85-.23-2.48-.16-.65-.47-1.16-.92-1.53"/><path class="cls-4" d="m151.96,59.39h1.41c.17,0,.31-.14.31-.31v-1.6c0-.17-.14-.31-.31-.31h-1.41c-.17,0-.31.14-.31.31v1.6c0,.17.14.31.31.31"/><path class="cls-4" d="m10.1,57.33h-2.19c-.11,0-.21.06-.26.15L.04,70.68c-.12.2.03.45.26.45h1.74l1.67-2.97h10.37l1.61,2.97h1.78c.23,0,.38-.25.26-.45l-7.37-13.19c-.05-.1-.15-.16-.26-.16m-1.09,1.62l4.17,7.59H4.64l4.35-7.59h.02Z"/><path class="cls-4" d="m87.43,71.18c.12,0,.24-.07.28-.19l5.22-11.99h.05l5.3,12.18h1.74c.23,0,.38-.25.26-.45l-5.96-13.19c-.05-.09-.15-.15-.26-.15h-2.19c-.11,0-.21.06-.26.15l-4.93,10.92-4.93-10.92c-.05-.09-.16-.15-.26-.15h-2.19c-.11,0-.21.06-.26.15l-5.96,13.19c-.12.2.03.45.26.45h1.74l5.3-12.18h.05l5.22,11.99c.05.11.16.19.29.19h1.53Z"/><path class="cls-4" d="m29.26,66.43c0,.63-.08,1.15-.24,1.55-.16.39-.4.7-.72.92-.33.23-.75.39-1.27.48-.53.09-1.16.14-1.88.14h-.3c-.81,0-1.47-.05-1.95-.14-.46-.09-.83-.25-1.08-.48-.25-.22-.42-.54-.5-.93-.08-.41-.13-.96-.13-1.63v-4.88c0-.17-.14-.3-.3-.3h-1.37c-.17,0-.3.13-.3.3v5.3c0,.84.08,1.56.22,2.11.15.58.43,1.04.83,1.37.39.33.93.57,1.6.7.66.13,1.5.19,2.51.19h.3c.76,0,1.41-.04,1.94-.13.53-.09.99-.22,1.36-.39.37-.17.68-.4.91-.67.13-.15.24-.32.35-.49v1.22c0,.17.14.3.3.3h1.37c.17,0,.3-.14.3-.3v-9.22c0-.17-.14-.3-.3-.3h-1.37c-.17,0-.3.13-.3.3v4.98Z"/><path class="cls-4" d="m44.38,62.35c-.11-.18-.25-.33-.4-.46-.25-.22-.57-.4-.95-.53-.37-.13-.82-.22-1.34-.27-.51-.05-1.12-.08-1.81-.08h-.36c-1.12,0-2.04.06-2.75.18-.72.12-1.3.37-1.73.73-.42.36-.72.87-.88,1.52-.15.63-.23,1.47-.23,2.48v.26c0,1,.07,1.83.22,2.47.15.66.44,1.17.86,1.54.42.37.99.62,1.73.76.72.13,1.65.2,2.78.2h.3c.73,0,1.37-.03,1.89-.08.53-.05.99-.15,1.38-.29.39-.14.71-.33.95-.56.15-.14.28-.3.4-.48v.95c0,.17.13.3.3.3h1.31c.17,0,.3-.14.3-.3v-13.19c0-.17-.13-.3-.3-.3h-1.37c-.17,0-.3.14-.3.3v4.87Zm-.13,1.77c.1.44.15,1.04.15,1.78v.26c0,.74-.05,1.34-.15,1.78-.09.42-.28.75-.55.98-.28.24-.68.39-1.21.47-.54.08-1.27.12-2.18.12h-.48c-.87,0-1.57-.04-2.1-.13-.51-.08-.9-.24-1.17-.47-.26-.22-.44-.55-.52-.98-.09-.45-.14-1.04-.14-1.77v-.26c0-.73.05-1.32.14-1.76.09-.42.26-.74.52-.96.27-.22.66-.37,1.16-.45.52-.08,1.23-.12,2.11-.12h.48c.89,0,1.62.04,2.17.11.53.07.94.22,1.22.44.27.22.46.54.55.96"/><path class="cls-4" d="m126.98,62.35c-.11-.18-.25-.33-.4-.46-.25-.22-.57-.4-.95-.53-.37-.13-.83-.22-1.34-.27-.51-.05-1.12-.08-1.81-.08h-.36c-1.12,0-2.04.06-2.75.18-.72.12-1.31.37-1.73.73-.42.36-.72.87-.88,1.52-.15.63-.23,1.47-.23,2.48v.26c0,1,.07,1.83.22,2.47.15.66.44,1.17.86,1.54.42.37.99.62,1.72.76.72.13,1.65.2,2.78.2h.3c.73,0,1.37-.03,1.89-.08.53-.05,1-.15,1.38-.29.39-.14.71-.33.95-.56.15-.14.28-.3.4-.48v.95c0,.17.13.3.3.3h1.31c.17,0,.3-.14.3-.3v-13.19c0-.17-.13-.3-.3-.3h-1.37c-.17,0-.3.14-.3.3v4.87Zm-.13,1.77c.1.44.15,1.04.15,1.78v.26c0,.74-.05,1.34-.15,1.78-.09.42-.28.75-.55.98-.28.24-.68.39-1.21.47-.54.08-1.27.12-2.18.12h-.48c-.86,0-1.57-.04-2.1-.13-.51-.08-.9-.24-1.17-.47-.26-.22-.44-.55-.52-.98-.09-.45-.14-1.04-.14-1.77v-.26c0-.73.05-1.32.14-1.76.09-.42.26-.74.52-.96.26-.22.65-.37,1.16-.45.52-.08,1.23-.12,2.11-.12h.48c.89,0,1.62.04,2.17.11.53.07.94.22,1.22.44.27.22.46.54.55.96"/><path class="cls-4" d="m49.5,71.13h1.37c.17,0,.3-.13.3-.3v-9.21c0-.17-.13-.3-.3-.3h-1.37c-.17,0-.3.14-.3.3v9.21c0,.17.14.3.3.3"/><path class="cls-4" d="m49.48,59.39h1.41c.17,0,.31-.14.31-.31v-1.6c0-.17-.14-.31-.31-.31h-1.41c-.17,0-.31.14-.31.31v1.6c0,.17.14.31.31.31"/><path class="cls-4" d="m65.51,61.9c-.45-.36-1.07-.6-1.86-.72-.77-.12-1.79-.18-3.02-.18h-.56c-1.24,0-2.25.06-3.02.18-.79.12-1.42.37-1.87.72-.46.36-.77.88-.93,1.53-.15.63-.23,1.47-.23,2.48v.3c0,1.01.08,1.85.23,2.48.16.65.47,1.17.92,1.53.45.37,1.08.61,1.88.74.78.12,1.8.18,3.03.18h.56c1.23,0,2.26-.06,3.03-.18.8-.12,1.42-.37,1.87-.74.44-.37.75-.88.91-1.53.15-.63.23-1.47.23-2.48v-.3c0-1.01-.08-1.85-.23-2.48-.16-.65-.47-1.16-.92-1.53m-.82,4v.3c0,.74-.05,1.34-.14,1.78-.08.42-.26.74-.54.96-.28.22-.68.37-1.21.45-.55.08-1.29.12-2.22.12h-.48c-.93,0-1.68-.04-2.23-.12-.54-.07-.95-.23-1.22-.45-.27-.22-.45-.54-.54-.96-.09-.44-.14-1.04-.14-1.78v-.3c0-.74.05-1.34.14-1.78.09-.42.27-.74.54-.96.28-.22.69-.37,1.22-.45.55-.08,1.3-.12,2.23-.12h.48c.93,0,1.67.04,2.22.12.53.07.94.23,1.21.45.27.22.45.54.54.96.09.44.14,1.04.14,1.78"/><path class="cls-4" d="m112.94,61.9c-.45-.36-1.07-.6-1.86-.72-.77-.12-1.79-.18-3.03-.18h-.56c-1.24,0-2.25.06-3.03.18-.79.12-1.42.37-1.87.72-.46.36-.77.88-.93,1.53-.15.63-.23,1.46-.23,2.48v.3c0,1.02.08,1.85.23,2.48.16.65.47,1.16.92,1.53.45.37,1.08.61,1.87.74.78.12,1.8.18,3.04.18h.56c1.24,0,2.26-.06,3.04-.18.8-.12,1.42-.37,1.86-.74.44-.37.75-.88.91-1.53.15-.63.23-1.47.23-2.48v-.3c0-1.01-.08-1.85-.23-2.48-.16-.65-.47-1.16-.92-1.53m-.82,4v.3c0,.74-.04,1.34-.14,1.78-.09.42-.27.74-.54.96-.28.22-.69.37-1.21.45-.55.08-1.29.12-2.22.12h-.48c-.93,0-1.68-.04-2.23-.12-.53-.07-.95-.23-1.22-.45-.27-.22-.45-.54-.54-.96-.09-.44-.14-1.04-.14-1.78v-.3c0-.74.05-1.34.14-1.78.09-.42.27-.74.54-.96.28-.22.69-.37,1.22-.45.55-.08,1.3-.12,2.23-.12h.48c.93,0,1.67.04,2.22.12.53.07.94.23,1.21.45.27.22.45.54.54.96.09.44.14,1.04.14,1.78"/><path class="cls-4" d="m146.89,71.13h1.37c.17,0,.3-.13.3-.3v-13.19c0-.17-.13-.3-.3-.3h-1.37c-.17,0-.3.14-.3.3v13.19c0,.17.14.3.3.3"/><path class="cls-4" d="m151.98,71.13h1.37c.17,0,.3-.13.3-.3v-9.21c0-.17-.14-.3-.3-.3h-1.37c-.17,0-.3.14-.3.3v9.21c0,.17.13.3.3.3"/><path class="cls-4" d="m167.4,62.01c-.4-.32-.93-.55-1.6-.68-.65-.12-1.49-.18-2.49-.18h-.32c-.76,0-1.41.04-1.93.13-.53.09-.98.22-1.34.39-.37.17-.67.39-.91.66-.14.16-.27.33-.39.52v-1.23c0-.17-.13-.3-.3-.3h-1.37c-.17,0-.3.13-.3.3v9.21c0,.17.14.3.3.3h1.37c.17,0,.3-.14.3-.3v-4.98c0-.6.08-1.11.24-1.5.15-.39.4-.69.73-.91.33-.23.76-.39,1.27-.48.52-.09,1.16-.14,1.89-.14h.3c.8,0,1.45.04,1.93.13.46.08.83.23,1.08.44.25.2.41.5.49.89.08.41.13.94.13,1.58v4.98c0,.17.14.3.3.3h1.37c.17,0,.3-.14.3-.3v-5.36c0-.86-.08-1.57-.22-2.11-.15-.56-.43-1.01-.83-1.34"/><path class="cls-4" d="m143.43,67.44h-1.28c-.16,0-.3.13-.3.3h0s0,0,0,0h0c0,.37-.05.67-.14.9-.09.22-.25.4-.51.53-.26.14-.65.24-1.14.29-.5.06-1.17.09-1.98.09h-.38c-.9,0-1.64-.04-2.19-.12-.53-.08-.95-.22-1.23-.43-.28-.21-.47-.51-.57-.89-.1-.41-.16-.94-.16-1.59v-.09h10.11v-1.29c0-.78-.08-1.44-.24-1.96-.16-.54-.46-.97-.89-1.3-.43-.32-1.02-.56-1.77-.69-.74-.13-1.69-.2-2.85-.2h-.48c-1.15,0-2.12.07-2.87.2-.76.14-1.37.39-1.81.76-.44.37-.76.88-.93,1.53-.17.63-.25,1.45-.25,2.44v.24c0,1,.08,1.83.24,2.47.17.66.48,1.18.94,1.54.46.36,1.09.62,1.88.75.78.13,1.8.2,3.02.2h.52c1.02,0,1.89-.05,2.59-.15.7-.1,1.28-.28,1.72-.53.45-.26.77-.61.96-1.05.19-.43.28-.97.28-1.61v-.06c0-.17-.13-.3-.3-.3m-9.68-3.66c.09-.33.27-.57.53-.76.27-.19.67-.32,1.19-.39.53-.07,1.25-.11,2.14-.11h.28c.88,0,1.58.04,2.1.12.5.08.89.2,1.15.38.25.17.42.39.49.68.08.3.12.68.12,1.14v.17h-8.17c.02-.5.07-.91.16-1.22"/><path class="cls-4" d="m183.28,61.16h-1.35c-.17,0-.3.13-.3.3v.93c-.13-.19-.27-.35-.44-.5-.26-.23-.59-.41-.97-.54-.37-.13-.82-.22-1.34-.27-.52-.05-1.12-.08-1.82-.08h-.3c-1.1,0-2.02.06-2.72.18-.72.12-1.29.36-1.7.69-.42.34-.71.82-.87,1.41-.15.58-.23,1.34-.23,2.26v.26c0,.91.08,1.66.23,2.24.16.6.46,1.07.89,1.41.43.34,1.01.57,1.72.69.7.12,1.62.18,2.72.18h.32c.73,0,1.37-.03,1.89-.1.53-.07.98-.17,1.34-.32.37-.14.67-.34.9-.57.13-.13.26-.29.36-.45v.87c0,.7-.04,1.27-.13,1.68-.08.39-.25.69-.53.89-.28.21-.69.35-1.24.41-.56.07-1.33.1-2.27.1h-.56c-.76,0-1.38-.02-1.84-.07-.45-.04-.81-.12-1.05-.24-.23-.1-.38-.24-.45-.41-.08-.18-.12-.42-.12-.7h0c0-.16-.14-.29-.3-.29h-1.37c-.17,0-.3.14-.3.3v.06h0c0,.64.09,1.16.27,1.55.19.4.5.72.93.94.42.21.98.35,1.67.42.68.07,1.54.1,2.56.1h.56c1.22,0,2.24-.06,3.02-.17.8-.12,1.43-.35,1.89-.7.47-.36.79-.87.97-1.52.17-.64.25-1.5.25-2.55v-8.11c0-.17-.14-.3-.3-.3m-1.68,4.61c0,.62-.05,1.13-.15,1.52-.09.37-.27.65-.56.86-.28.21-.7.36-1.22.44-.54.09-1.26.13-2.13.13h-.44c-.86,0-1.56-.04-2.07-.12-.5-.08-.89-.22-1.16-.43-.26-.2-.44-.5-.53-.87-.09-.39-.14-.91-.14-1.53v-.26c0-.62.05-1.13.14-1.52.09-.36.26-.65.53-.85.27-.2.66-.34,1.16-.41.52-.07,1.22-.11,2.08-.11h.44c.88,0,1.6.04,2.14.12.52.08.93.22,1.21.43.27.21.46.49.56.85.1.38.15.88.15,1.49v.26Z"/><path class="cls-4" d="m184.85,44.45l-25.16-40.05c-1.73-2.75-4.7-4.4-7.95-4.4h0c-3.25,0-6.22,1.64-7.95,4.39l-20.37,32.33c-.58.92-1.93.92-2.51,0L100.34,4.05c-1.65-2.62-4.57-4.15-7.65-4.01-3.32.14-6.35,1.9-8.12,4.72-6.11,9.72-20.05,32.01-21.19,33.84-.04.06-.12.05-.15,0L41.77,4.42C40.04,1.67,37.06.03,33.81.03h-.01c-3.26,0-6.23,1.65-7.96,4.42L.83,44.45c-.68,1.09.1,2.5,1.39,2.5,4.59,0,8.86-2.36,11.29-6.26l19.05-30.47c.58-.93,1.93-.93,2.51,0l22.59,35.96c.3.48.83.77,1.39.77h8.52c.57,0,1.09-.29,1.39-.77l22.47-35.95c.58-.93,1.93-.93,2.51,0l20.24,32.28c1.73,2.76,4.7,4.4,7.95,4.41h0c3.25,0,6.22-1.64,7.95-4.39l20.37-32.34c.58-.93,1.94-.93,2.52,0l18.36,29.23.79,1.27c2.43,3.89,6.7,6.26,11.29,6.26,0,0,.02,0,.02,0h0c1.29,0,2.07-1.42,1.39-2.51"/></svg>