<?xml version="1.0" encoding="UTF-8" standalone="no"?>
<!-- Created with Inkscape (http://www.inkscape.org/) -->

<svg
   xmlns:dc="http://purl.org/dc/elements/1.1/"
   xmlns:cc="http://creativecommons.org/ns#"
   xmlns:rdf="http://www.w3.org/1999/02/22-rdf-syntax-ns#"
   xmlns:svg="http://www.w3.org/2000/svg"
   xmlns="http://www.w3.org/2000/svg"
   xmlns:sodipodi="http://sodipodi.sourceforge.net/DTD/sodipodi-0.dtd"
   xmlns:inkscape="http://www.inkscape.org/namespaces/inkscape"
   width="432.53311mm"
   height="318.0246mm"
   viewBox="0 0 432.53311 318.0246"
   version="1.1"
   id="svg4567"
   inkscape:version="0.92.4 (5da689c313, 2019-01-14)"
   sodipodi:docname="logo verticale.svg">
  <defs
     id="defs4561" />
  <sodipodi:namedview
     id="base"
     pagecolor="#ffffff"
     bordercolor="#666666"
     borderopacity="1.0"
     inkscape:pageopacity="0.0"
     inkscape:pageshadow="2"
     inkscape:zoom="0.35"
     inkscape:cx="413.28835"
     inkscape:cy="353.14482"
     inkscape:document-units="mm"
     inkscape:current-layer="layer1"
     showgrid="false"
     fit-margin-top="0"
     fit-margin-left="0"
     fit-margin-right="0"
     fit-margin-bottom="0"
     inkscape:window-width="1920"
     inkscape:window-height="1017"
     inkscape:window-x="-8"
     inkscape:window-y="-8"
     inkscape:window-maximized="1" />
  <metadata
     id="metadata4564">
    <rdf:RDF>
      <cc:Work
         rdf:about="">
        <dc:format>image/svg+xml</dc:format>
        <dc:type
           rdf:resource="http://purl.org/dc/dcmitype/StillImage" />
        <dc:title></dc:title>
      </cc:Work>
    </rdf:RDF>
  </metadata>
  <g
     inkscape:label="Livello 1"
     inkscape:groupmode="layer"
     id="layer1"
     transform="translate(130.08799,75.946825)">
    <g
       id="g5154">
      <path
         style="fill:#0f0c0c;fill-opacity:1;fill-rule:nonzero;stroke:none;stroke-width:0.35277778"
         d="m -101.4689,187.65768 c -6.90121,0.25356 -12.38167,2.81533 -16.44137,7.6867 -4.00871,4.82037 -5.98757,10.45379 -5.93659,16.89749 0.10198,6.19016 2.28341,11.8484 6.54568,16.97331 4.26228,5.12494 9.69175,7.89065 16.28841,8.29715 0.15297,0 0.27975,0 0.38034,0 0.15297,0 0.27974,0 0.38034,0 0.10198,0.0496 0.20395,0.0758 0.304548,0.0758 h 0.45751 c 6.190146,0 11.568631,-2.20761 16.135449,-6.62287 4.566818,-4.46483 6.850228,-10.19884 6.850228,-17.20067 0,-6.8502 -2.334397,-12.91496 -7.001813,-18.19147 -4.617805,-5.27788 -10.327019,-7.89065 -17.126262,-7.83966 h -0.83647 z m 0.0758,-4.26227 c 0.10197,0.0496 0.20257,0.0758 0.30454,0.0758 0.15159,0 0.30455,0 0.45613,0 0.10198,0 0.20395,0 0.30455,0 0.15296,0 0.27974,0 0.380338,0 7.967817,0 14.867653,2.61276 20.703646,7.83966 5.834612,5.22552 8.853896,12.25351 9.057844,21.0826 0.100598,8.88009 -2.969672,16.01004 -9.210805,21.38853 -6.241137,5.32751 -13.598483,7.94163 -22.072043,7.83967 -7.96643,-0.051 -14.74087,-2.89249 -20.3233,-8.52455 -5.53007,-5.68304 -8.29579,-12.58426 -8.29579,-20.70365 0,-7.91545 2.81671,-14.63889 8.44875,-20.16896 5.63204,-5.53145 12.38029,-8.44875 20.24614,-8.7533 z m 0,0"
         id="path815"
         inkscape:connector-curvature="0" />
      <path
         style="fill:#0f0c0c;fill-opacity:1;fill-rule:nonzero;stroke:none;stroke-width:0.35277778"
         d="m -48.064405,187.88506 c -0.151581,0.051 -0.304546,0.0772 -0.456127,0.0772 -0.101978,0 -0.202573,-0.0262 -0.30455,-0.0772 h -1.142393 c -0.963249,0 -1.901691,0.0772 -2.815333,0.22875 -0.862651,0.10198 -1.446939,0.25356 -1.751485,0.45613 -0.456131,0.30455 -0.735873,0.71107 -0.836468,1.21819 -0.05099,0.50712 -0.07579,1.04042 -0.07579,1.59852 v 20.77945 l 3.577389,-0.0772 c 4.007333,0 7.457941,-1.09002 10.350443,-3.27283 2.892503,-2.23242 4.313259,-5.14973 4.262272,-8.7533 v -0.91226 c -0.253559,-3.09645 -1.369769,-5.60724 -3.34863,-7.53649 -1.927878,-1.97887 -4.059703,-3.14606 -6.392721,-3.50022 -0.152961,-0.051 -0.33073,-0.0758 -0.533302,-0.0758 -0.152961,-0.051 -0.330729,-0.0772 -0.533301,-0.0772 z m 3.501598,26.71601 -1.522733,0.30456 8.448752,9.3624 c 0.913638,1.06521 1.751486,2.05465 2.512163,2.96827 0.811664,0.86265 1.598524,1.72533 2.359201,2.58798 0.202572,0.25354 0.406524,0.50712 0.609092,0.76066 0.253559,0.20257 0.482314,0.43134 0.684886,0.68488 0.609092,0.66009 1.242992,1.32017 1.903071,1.97888 0.70969,0.66008 1.445563,1.37114 2.207616,2.13183 0.456131,0.40513 0.836471,0.78684 1.141017,1.14099 0.355533,0.30455 0.711066,0.60911 1.065224,0.91366 0.203951,0.15296 0.381716,0.30455 0.533301,0.45752 0.202572,0.15159 0.431327,0.30314 0.684886,0.4561 0.457507,0.30456 0.964625,0.63391 1.52273,0.98944 0.609092,0.30455 1.369769,0.68488 2.283411,1.1424 l 2.762966,0.30455 c 0,0 -1.11759,0.1433 -1.763889,0.61324 -0.727604,0.52916 -1.683964,0.67934 -1.836924,0.67934 -0.151586,0 -0.329354,0 -0.531922,0 -0.813044,0 -1.82728,-0.15155 -3.045467,-0.45611 -1.167197,-0.25357 -2.384006,-0.58293 -3.65318,-0.98943 -1.420756,-0.5581 -3.146058,-1.85209 -5.17591,-3.88193 -1.978865,-2.02985 -4.033516,-4.21129 -6.165342,-6.54569 -0.04961,-0.051 -0.100598,-0.0758 -0.151585,-0.0758 -0.05099,-0.051 -0.07579,-0.10198 -0.07579,-0.15296 -0.45751,-0.45614 -0.888838,-0.91228 -1.293978,-1.3698 -0.406524,-0.45611 -0.811664,-0.91362 -1.218188,-1.36977 l -11.1125,-11.87316 h -2.056031 v 18.03852 c 0,0.86265 0.02618,1.62334 0.07717,2.28342 0.100595,0.60908 0.405141,1.21818 0.912259,1.82725 0.304549,0.40517 0.837847,0.7607 1.598524,1.06525 0.813044,0.25354 1.649515,0.48232 2.512166,0.68488 0.152961,0.051 0.279742,0.10058 0.380337,0.15159 0.152964,0.051 0.304546,0.0758 0.45751,0.0758 0.405144,0.10199 0.78686,0.22874 1.141014,0.3817 0.355537,0.10062 0.684886,0.2026 0.989432,0.30456 l 1.674316,0.60773 h -25.802386 l 1.751485,-0.53192 c 0.405144,-0.051 0.862655,-0.15297 1.369773,-0.30455 0.558105,-0.15297 1.11621,-0.30456 1.674315,-0.45752 0.558105,-0.20257 1.091406,-0.38033 1.598524,-0.53192 0.507118,-0.20257 0.938446,-0.40651 1.293979,-0.60911 0.304546,-0.10195 0.533301,-0.22874 0.684882,-0.38033 0.202572,-0.15296 0.355537,-0.27975 0.456131,-0.38033 0.254939,-0.30455 0.432707,-0.6339 0.533302,-0.98943 0.101974,-0.40651 0.177768,-0.81305 0.228755,-1.21818 v -43.46058 c 0,-0.66008 -0.05099,-1.26917 -0.152961,-1.82728 -0.05099,-0.5581 -0.278366,-1.09003 -0.684886,-1.59852 -0.355533,-0.40515 -0.938446,-0.78686 -1.75011,-1.14102 -0.760677,-0.40652 -1.57372,-0.78686 -2.436371,-1.14239 -0.507118,-0.20257 -1.014236,-0.38034 -1.521354,-0.5333 -0.457507,-0.20258 -0.888835,-0.37896 -1.293979,-0.53192 l -1.674315,-0.68489 h 13.852038 c 0.760677,0.051 1.471747,0.0758 2.131826,0.0758 0.658703,-0.051 1.318782,-0.10197 1.978865,-0.15158 h 2.283407 c 0.558108,-0.051 1.141017,-0.0772 1.750109,-0.0772 0.558105,0 1.11621,0.0262 1.674319,0.0772 0.609092,0 1.242987,0.0248 1.90307,0.0758 0.40652,0.051 0.78686,0.1006 1.142393,0.15158 0.405144,0.051 0.811664,0.10198 1.216808,0.15297 3.045464,0.6587 5.860796,2.25722 8.448753,4.79419 2.587953,2.53835 3.881931,6.06475 3.881931,10.58058 0,3.45061 -0.862651,6.16534 -2.587956,8.14421 -1.674315,1.97884 -3.526399,3.47539 -5.55625,4.49101 -0.913638,0.45614 -1.8259,0.83647 -2.739538,1.14102 -0.913638,0.30455 -1.751486,0.5581 -2.512163,0.7607 z m 0,0"
         id="path817"
         inkscape:connector-curvature="0" />
      <path
         style="fill:#0f0c0c;fill-opacity:1;fill-rule:nonzero;stroke:none;stroke-width:0.35277778"
         d="m 15.328111,214.22074 -7.6880754,-19.94159 -7.76386635,19.94159 z m -3.881935,-29.76011 c 0.100598,0.40514 0.202572,0.78548 0.304546,1.14102 0.100598,0.30454 0.202572,0.60909 0.304546,0.91363 0.05099,0.35554 0.126782,0.68489 0.227376,0.98944 0.101978,0.30454 0.203952,0.66008 0.30455,1.06522 0.711066,2.18281 1.751485,5.2021 3.121254,9.05784 1.369769,3.80615 2.816712,7.76387 4.338066,11.87456 0.101974,0.25354 0.202572,0.50712 0.304546,0.76066 0.101974,0.25358 0.202572,0.50712 0.304546,0.7607 1.82728,5.02433 3.552582,9.66692 5.17591,13.92921 1.674318,4.21129 2.790528,6.92602 3.348633,8.1442 0.152965,0.40516 0.304546,0.76069 0.457511,1.06521 0.151581,0.30455 0.303167,0.63391 0.456131,0.98943 0.101974,0.25358 0.228752,0.53333 0.380337,0.83785 0.152961,0.25358 0.304546,0.53192 0.45751,0.83647 0.253559,0.5085 0.760677,0.96464 1.521354,1.37114 0.811664,0.40517 1.674315,0.7855 2.587953,1.14103 0.202573,0.051 0.406524,0.12679 0.609096,0.22878 0.202569,0.10057 0.40652,0.17776 0.609092,0.22736 0.151585,0.051 0.278363,0.12679 0.380337,0.22874 0.151585,0.051 0.304546,0.10199 0.456131,0.15159 l 1.598524,0.60911 H 16.164579 l 1.978865,-0.7607 c 0.304546,-0.051 0.635275,-0.15159 0.989428,-0.30455 0.355537,-0.15155 0.735874,-0.30452 1.142394,-0.45611 0.70969,-0.25357 1.344965,-0.55813 1.903074,-0.91366 0.609092,-0.35553 0.989428,-0.78683 1.141013,-1.29395 0,-0.051 0.02618,-0.10199 0.07579,-0.15159 v -0.22878 c 0,-0.25354 -0.04961,-0.58427 -0.151581,-0.9894 -0.101978,-0.40654 -0.228756,-0.78687 -0.380341,-1.1424 -0.05099,-0.20256 -0.101974,-0.38036 -0.152961,-0.53191 -0.05099,-0.15159 -0.100598,-0.30456 -0.151585,-0.45752 -0.05099,-0.20257 -0.126777,-0.38033 -0.228755,-0.53192 -0.05099,-0.20257 -0.100594,-0.38037 -0.151581,-0.53329 L 17.078217,218.17849 H -1.7223551 l -5.3274983,14.23373 c -0.050987,0.15297 -0.1005946,0.27838 -0.1515816,0.38033 0,0.051 0,0.12679 0,0.22878 -0.1019774,0.20256 -0.202572,0.43131 -0.3045495,0.68488 -0.050987,0.25354 -0.1019739,0.50712 -0.1529609,0.76066 -0.1515851,0.55813 -0.2783628,1.09143 -0.3803368,1.59854 -0.1005981,0.50712 -0.1515851,0.88883 -0.1515851,1.1424 0,0.0496 0,0.10058 0,0.15156 0,0 0,0.0247 0,0.0758 0.2025721,0.45752 0.5829089,0.83785 1.1410139,1.1424 0.6090955,0.25354 1.2691745,0.50712 1.9788646,0.76066 0.101974,0 0.2039479,0.0261 0.304546,0.0772 0.101974,0 0.1777683,0.0247 0.2287552,0.0758 0.2535591,0.10199 0.5071181,0.20257 0.7606771,0.30456 0.2535591,0.051 0.4823108,0.12679 0.6848828,0.22736 l 2.0560348,0.76207 H -21.815533 l 1.674318,-0.6091 c 0.355533,-0.10196 0.735874,-0.22874 1.142394,-0.38033 0.456131,-0.15297 0.887454,-0.30456 1.293978,-0.45752 0.861272,-0.30455 1.674315,-0.65871 2.434992,-1.06521 0.760677,-0.40654 1.269175,-0.83785 1.522734,-1.29399 0.151585,-0.25354 0.278363,-0.50712 0.380336,-0.76066 0.101978,-0.25358 0.202573,-0.48232 0.304546,-0.68488 0.101978,-0.15297 0.177769,-0.30456 0.22738,-0.45752 0.05099,-0.15159 0.101974,-0.32936 0.152961,-0.53192 0.100598,-0.20394 0.177768,-0.40654 0.228755,-0.60911 0.100595,-0.20394 0.202572,-0.4313 0.304546,-0.68488 0.658703,-1.42212 1.293978,-2.89249 1.901691,-4.41522 0.6600825,-1.57234 1.3201614,-3.17088 1.9802404,-4.7956 0.3541572,-0.81163 0.7096901,-1.6233 1.0652266,-2.43497 0.355533,-0.86265 0.7096866,-1.7253 1.0652231,-2.58795 2.6389436,-6.54568 5.0243247,-12.66005 7.1547744,-18.34308 2.1318255,-5.73402 3.4506076,-9.3872 3.9577257,-10.96092 0.1529609,-0.50712 0.2797422,-0.96325 0.3803368,-1.36977 0.1529644,-0.40652 0.2797422,-0.81166 0.3817161,-1.21818 0,-0.15159 0.0248,-0.27837 0.075794,-0.38034 0.049608,-0.15159 0.075791,-0.30455 0.075791,-0.45613 0.1019739,-0.25494 0.1777683,-0.5333 0.2287552,-0.83785 0.1005946,-0.30454 0.1777648,-0.60909 0.2273759,-0.91364 z m 0,0"
         id="path819"
         inkscape:connector-curvature="0" />
      <path
         style="fill:#0f0c0c;fill-opacity:1;fill-rule:nonzero;stroke:none;stroke-width:0.35277778"
         d="m 56.778121,183.31824 c 1.82728,0.051 3.577389,0.20395 5.251704,0.45751 1.725302,0.20257 3.146062,0.45613 4.262272,0.76067 0.101974,0 0.203951,0.0248 0.304546,0.0758 0.152964,0 0.279742,0.0262 0.38034,0.0772 l 1.52273,0.38034 0.152964,14.68989 -3.197048,-7.76387 c -0.71107,-1.77629 -1.801097,-2.94349 -3.272843,-3.50159 -1.471743,-0.60909 -3.374813,-0.96325 -5.709211,-1.06522 h -0.609092 c -3.095075,0 -5.707835,1.06522 -7.839661,3.19704 -2.079459,2.07946 -3.119878,4.59163 -3.119878,7.53512 0,1.92787 0.609092,3.60219 1.827279,5.02294 1.267795,1.36978 2.637565,2.53697 4.109311,3.50159 0.811664,0.50712 1.572341,0.96464 2.283407,1.36977 0.760677,0.35553 1.42076,0.66008 1.978865,0.91366 0.40652,0.20256 0.78686,0.4065 1.142393,0.60907 0.405144,0.2026 0.811664,0.40654 1.216808,0.6091 3.704167,1.87689 6.978386,3.93154 9.819898,6.16536 2.891127,2.23241 4.387674,5.45426 4.489651,9.66555 0.101974,5.0753 -1.547537,8.95586 -4.947158,11.64579 -3.399621,2.68993 -7.737683,4.0597 -13.01557,4.11071 H 53.04915 c -0.253559,0 -0.507118,-0.0261 -0.760677,-0.0772 -0.862651,-0.0496 -1.726681,-0.15159 -2.587956,-0.30318 -0.862651,-0.10195 -1.649512,-0.22874 -2.360581,-0.3817 -0.607713,-0.15159 -1.167197,-0.27834 -1.674315,-0.38033 -0.507118,-0.10061 -0.913638,-0.17777 -1.218184,-0.22874 l -3.271464,-0.91229 -0.381716,-14.46251 2.587953,6.69865 c 0.71107,1.92786 1.82728,3.29766 3.350013,4.11067 1.572341,0.81167 3.221853,1.34359 4.947158,1.59717 0.304546,0.051 0.582909,0.10199 0.836468,0.15296 0.304546,0 0.584288,0.0247 0.837847,0.0758 0.151586,0 0.278363,0.0261 0.380337,0.0758 0.151585,0 0.278367,0 0.380341,0 0.101974,0 0.202572,0 0.304546,0 0.151585,0 0.304546,0 0.45751,0 2.993097,0 5.632041,-0.91228 7.915451,-2.73956 2.334395,-1.82725 3.475412,-4.16165 3.424425,-7.00317 v -0.53192 c -0.151585,-2.68993 -1.065223,-4.74458 -2.739542,-6.16536 -1.624707,-1.47175 -3.577385,-2.7905 -5.860796,-3.9577 -0.660079,-0.35557 -1.344965,-0.70972 -2.056031,-1.06525 -0.658703,-0.35553 -1.343589,-0.73586 -2.054655,-1.1424 -0.913642,-0.50712 -1.801097,-0.9894 -2.663748,-1.44554 -0.811667,-0.45615 -1.623331,-0.91366 -2.434996,-1.37115 -2.538345,-1.47037 -4.617804,-3.11989 -6.242512,-4.94718 -1.623328,-1.82588 -2.536969,-4.51582 -2.739541,-8.06702 v -0.76205 c 0,-4.71841 1.776292,-8.39777 5.327498,-11.03671 3.603568,-2.68855 7.612281,-4.05833 12.026138,-4.10931 z m 0,0"
         id="path821"
         inkscape:connector-curvature="0" />
      <path
         style="fill:#0f0c0c;fill-opacity:1;fill-rule:nonzero;stroke:none;stroke-width:0.35277778"
         d="m 76.281497,183.24244 3.197049,1.21819 h 35.925464 l 3.95771,-1.44694 -0.15297,17.05047 -1.2168,-4.0349 c -0.051,-0.051 -0.10195,-0.10059 -0.15296,-0.15158 v -0.22876 c -0.10058,-0.30454 -0.20257,-0.60909 -0.30318,-0.91364 -0.051,-0.30454 -0.12813,-0.60909 -0.22874,-0.91364 -0.35553,-1.01423 -0.73586,-1.95268 -1.1424,-2.81533 -0.40513,-0.91364 -0.96323,-1.49655 -1.67432,-1.75011 -0.25354,-0.10197 -0.50712,-0.17776 -0.76066,-0.22875 -0.25358,-0.051 -0.50849,-0.0758 -0.76207,-0.0758 -0.25354,-0.051 -0.50712,-0.0772 -0.76066,-0.0772 h -1.36976 l -10.0473,-0.0758 v 44.60297 c 0,0.86265 0.0248,1.62334 0.0758,2.28342 0.10197,0.60908 0.40652,1.21681 0.91364,1.82588 0.30454,0.40654 0.83784,0.76207 1.59852,1.06662 0.81166,0.25354 1.64951,0.48094 2.51216,0.68488 0.15158,0.0496 0.27837,0.10058 0.38033,0.15159 0.15158,0.051 0.30455,0.0758 0.45614,0.0758 0.40654,0.10199 0.78687,0.22874 1.1424,0.3817 0.35553,0.10062 0.68488,0.2026 0.98943,0.30456 l 1.67432,0.60773 H 84.73025 l 1.750106,-0.53192 c 0.406523,-0.051 0.862654,-0.15297 1.369772,-0.30455 0.558105,-0.15297 1.117586,-0.30456 1.675695,-0.45752 0.507118,-0.20257 1.014236,-0.38033 1.521354,-0.53192 0.507118,-0.20394 0.964625,-0.40651 1.369769,-0.60911 0.254935,-0.10195 0.482314,-0.22874 0.684883,-0.38033 0.203951,-0.15296 0.355536,-0.27975 0.45751,-0.38033 0.151585,-0.25357 0.278363,-0.48231 0.380337,-0.68625 0.152964,-0.25358 0.253559,-0.50712 0.304549,-0.7607 0.05099,-0.25354 0.07579,-0.50712 0.07579,-0.76066 0.05099,-0.25358 0.07717,-0.48232 0.07717,-0.68488 v -0.76207 c -0.05099,-0.15159 -0.07717,-0.27838 -0.07717,-0.38033 V 188.79869 H 82.52263 c -0.253559,0.051 -0.507118,0.0758 -0.760677,0.0758 -0.202572,0 -0.40652,0.0248 -0.609092,0.0758 -0.101974,0.051 -0.228756,0.10197 -0.380337,0.15296 -0.101978,0.051 -0.202572,0.1006 -0.30455,0.15159 -0.609092,0.40652 -1.091406,1.11759 -1.446939,2.13182 -0.354153,1.01424 -0.658703,2.10564 -0.912262,3.27284 -0.05099,0.15159 -0.101974,0.32935 -0.152961,0.5333 0,0.15159 -0.0248,0.30317 -0.07579,0.45613 -0.05099,0.25356 -0.126781,0.50712 -0.228755,0.76068 -0.05099,0.25356 -0.100598,0.50849 -0.151585,0.76205 l -0.837847,2.58796 z m 0,0"
         id="path823"
         inkscape:connector-curvature="0" />
      <path
         style="fill:#0f0c0c;fill-opacity:1;fill-rule:nonzero;stroke:none;stroke-width:0.35277778"
         d="m 147.1471,187.88506 c -0.15293,0.051 -0.30452,0.0772 -0.45749,0.0772 -0.10061,0 -0.20256,-0.0262 -0.30455,-0.0772 h -1.14102 c -0.96464,0 -1.90306,0.0772 -2.81672,0.22875 -0.86265,0.10198 -1.44555,0.25356 -1.7501,0.45613 -0.45752,0.30455 -0.73586,0.71107 -0.83785,1.21819 -0.0496,0.50712 -0.0758,1.04042 -0.0758,1.59852 v 20.77945 l 3.57738,-0.0772 c 4.00872,0 7.45931,-1.09002 10.3518,-3.27283 2.89253,-2.23242 4.31327,-5.14973 4.2623,-8.7533 v -0.91226 c -0.25358,-3.09645 -1.36977,-5.60724 -3.34864,-7.53649 -1.92927,-1.97887 -4.0597,-3.14606 -6.3941,-3.50022 -0.15159,-0.051 -0.32935,-0.0758 -0.53329,-0.0758 -0.15159,-0.051 -0.32935,-0.0772 -0.53195,-0.0772 z m 3.5016,26.71601 -1.52273,0.30456 8.44874,9.3624 c 0.91366,1.06521 1.75013,2.05465 2.51079,2.96827 0.81305,0.86265 1.59854,1.72533 2.36058,2.58798 0.2026,0.25354 0.40517,0.50712 0.60911,0.76066 0.25354,0.20257 0.48094,0.43134 0.68488,0.68488 0.6091,0.66009 1.24298,1.32017 1.90306,1.97888 0.70972,0.66008 1.44558,1.37114 2.20624,2.13183 0.45751,0.40513 0.83784,0.78684 1.1424,1.14099 0.35553,0.30455 0.70968,0.60911 1.06524,0.91366 0.20257,0.15296 0.38033,0.30455 0.5333,0.45752 0.20256,0.15159 0.4313,0.30314 0.68488,0.4561 0.45611,0.30456 0.96322,0.63391 1.52273,0.98944 0.6077,0.30455 1.36977,0.68488 2.28201,1.1424 l 2.05606,0.91225 -2.51216,0.6091 c -0.10199,0.051 -0.22878,0.0758 -0.38037,0.0758 -0.15296,0 -0.32935,0 -0.53329,0 -0.81167,0 -1.82591,-0.15155 -3.04409,-0.45611 -1.1672,-0.25357 -2.38537,-0.58293 -3.65319,-0.98943 -1.42074,-0.5581 -3.14603,-1.85209 -5.17588,-3.88193 -1.97887,-2.02985 -4.03352,-4.21129 -6.16536,-6.54569 -0.051,-0.051 -0.10199,-0.0758 -0.15296,-0.0758 -0.0496,-0.051 -0.0758,-0.10198 -0.0758,-0.15296 -0.45614,-0.45614 -0.88748,-0.91228 -1.29399,-1.3698 -0.40513,-0.45611 -0.81167,-0.91362 -1.21817,-1.36977 l -11.1125,-11.87316 h -2.05465 v 18.03852 c 0,0.86265 0.0261,1.62334 0.0758,2.28342 0.10199,0.60908 0.40651,1.21818 0.91363,1.82725 0.30455,0.40517 0.83785,0.7607 1.59854,1.06525 0.81167,0.25354 1.64952,0.48232 2.51217,0.68488 0.15158,0.051 0.27837,0.10058 0.38033,0.15159 0.15296,0.051 0.30455,0.0758 0.45614,0.0758 0.4065,0.10199 0.78687,0.22874 1.1424,0.3817 0.35553,0.10062 0.68488,0.2026 0.98943,0.30456 l 1.67429,0.60773 h -25.80238 l 1.75013,-0.53192 c 0.4065,-0.051 0.86265,-0.15297 1.36976,-0.30455 0.55947,-0.15297 1.11757,-0.30456 1.6757,-0.45752 0.55809,-0.20257 1.09001,-0.38033 1.59851,-0.53192 0.50711,-0.20257 0.93845,-0.40651 1.29398,-0.60911 0.30318,-0.10195 0.53192,-0.22874 0.68489,-0.38033 0.20256,-0.15296 0.35415,-0.27975 0.45614,-0.38033 0.25354,-0.30455 0.4313,-0.6339 0.53329,-0.98943 0.10058,-0.40651 0.17777,-0.81305 0.22737,-1.21818 v -43.46058 c 0,-0.66008 -0.0496,-1.26917 -0.15159,-1.82728 -0.051,-0.5581 -0.27972,-1.09003 -0.68488,-1.59852 -0.35553,-0.40515 -0.9398,-0.78686 -1.75147,-1.14102 -0.7607,-0.40652 -1.57237,-0.78686 -2.43502,-1.14239 -0.50712,-0.20257 -1.01561,-0.38034 -1.52273,-0.5333 -0.4561,-0.20258 -0.88745,-0.37896 -1.29395,-0.53192 l -1.67432,-0.68489 h 13.85341 c 0.76066,0.051 1.47037,0.0758 2.13046,0.0758 0.66008,-0.051 1.32013,-0.10197 1.97883,-0.15158 h 2.28343 c 0.55809,-0.051 1.1424,-0.0772 1.75147,-0.0772 0.55813,0 1.11622,0.0262 1.67432,0.0772 0.6091,0 1.24301,0.0248 1.90309,0.0758 0.40513,0.051 0.78546,0.1006 1.14099,0.15158 0.40654,0.051 0.81167,0.10198 1.21821,0.15297 3.04409,0.6587 5.86077,2.25722 8.44875,4.79419 2.58794,2.53835 3.88193,6.06475 3.88193,10.58058 0,3.45061 -0.86265,6.16534 -2.58798,8.14421 -1.67428,1.97884 -3.52636,3.47539 -5.55625,4.49101 -0.91362,0.45614 -1.82724,0.83647 -2.7409,1.14102 -0.91225,0.30455 -1.7501,0.5581 -2.51079,0.7607 z m 0,0"
         id="path825"
         inkscape:connector-curvature="0" />
      <path
         style="fill:#0f0c0c;fill-opacity:1;fill-rule:nonzero;stroke:none;stroke-width:0.35277778"
         d="m 202.39404,187.65768 c -6.90122,0.25356 -12.38028,2.81533 -16.43998,7.6867 -4.00872,4.82037 -5.98759,10.45379 -5.93661,16.89749 0.10061,6.19016 2.28205,11.8484 6.54568,16.97331 4.26226,5.12494 9.69176,7.89065 16.28842,8.29715 0.15159,0 0.27838,0 0.38033,0 0.15159,0 0.27838,0 0.38033,0 0.10199,0.0496 0.2026,0.0758 0.30456,0.0758 h 0.45614 c 6.19153,0 11.57002,-2.20761 16.13683,-6.62287 4.56681,-4.46483 6.8502,-10.19884 6.8502,-17.20067 0,-6.8502 -2.33436,-12.91496 -7.00317,-18.19147 -4.61782,-5.27788 -10.32562,-7.89065 -17.12489,-7.83966 h -0.83784 z m 0.0758,-4.26227 c 0.10195,0.0496 0.20394,0.0758 0.30452,0.0758 0.15296,0 0.30455,0 0.45751,0 0.10062,0 0.20257,0 0.30456,0 0.15158,0 0.27837,0 0.38033,0 7.96646,0 14.86767,2.61276 20.70227,7.83966 5.836,5.22552 8.85528,12.25351 9.05785,21.0826 0.10199,8.88009 -2.96831,16.01004 -9.20944,21.38853 -6.24114,5.32751 -13.59846,7.94163 -22.07341,7.83967 -7.96643,-0.051 -14.74086,-2.89249 -20.32194,-8.52455 -5.53142,-5.68304 -8.29716,-12.58426 -8.29716,-20.70365 0,-7.91545 2.81672,-14.63889 8.44874,-20.16896 5.63344,-5.53145 12.38169,-8.44875 20.24617,-8.7533 z m 0,0"
         id="path827"
         inkscape:connector-curvature="0" />
      <path
         style="fill:#0f0c0c;fill-opacity:1;fill-rule:nonzero;stroke:none;stroke-width:0.35277778"
         d="m 291.02808,240.93678 c -3.95771,-4.41526 -6.49468,-7.20577 -7.6109,-8.37297 -1.06521,-1.2168 -1.85208,-2.10566 -2.3592,-2.66375 -0.30456,-0.30456 -0.66009,-0.66008 -1.06659,-1.06521 -0.40517,-0.40655 -1.09005,-1.11623 -2.05468,-2.13184 -1.06522,-1.11619 -2.13043,-2.23241 -3.19705,-3.34864 -1.06522,-1.11619 -2.1566,-2.25721 -3.27283,-3.42579 -0.20256,-0.25357 -0.43134,-0.48094 -0.68488,-0.6835 -0.25358,-0.25496 -0.48094,-0.5085 -0.68488,-0.76208 -4.97336,-5.17588 -9.69176,-9.99627 -14.15659,-14.46112 -4.46624,-4.51583 -7.66328,-7.71288 -9.59114,-9.59114 v 34.47988 c -0.0496,0.30456 -0.0758,0.66008 -0.0758,1.06525 v 2.96965 c 0.051,0.81167 0.12679,1.62334 0.22878,2.43501 0.15159,0.81167 0.35553,1.47172 0.60907,1.97884 0.25358,0.50712 0.7359,0.93846 1.44558,1.29399 0.76066,0.35553 1.54753,0.68488 2.3592,0.98943 0.25354,0.10199 0.48232,0.20257 0.68488,0.30456 0.20394,0.051 0.40651,0.10195 0.60911,0.15158 l 2.1318,0.68489 h -19.8658 l 1.29399,-0.60773 c 0.25354,-0.051 0.48232,-0.12817 0.68488,-0.22874 0.25354,-0.10199 0.50712,-0.20257 0.76066,-0.30456 0.86268,-0.35553 1.67432,-0.73586 2.43639,-1.14102 0.81167,-0.40651 1.36977,-0.88883 1.67432,-1.44692 0.25354,-0.45614 0.40513,-1.24301 0.45614,-2.3592 0.10195,-1.1672 0.17777,-2.41021 0.22874,-3.73038 v -46.50464 h 4.41385 c 0.5581,0.70969 1.21818,1.57234 1.98025,2.58796 0.76066,0.96324 1.7749,2.10564 3.04408,3.42442 2.13046,2.18281 4.46487,4.593 7.00183,7.23057 2.58794,2.63894 5.2021,5.32887 7.83964,8.06841 5.37986,5.63203 10.40282,10.88514 15.07162,15.7551 4.7184,4.87137 7.6109,7.79007 8.67611,8.7533 v -37.52397 c 0,-1.01424 -0.0247,-1.92787 -0.0758,-2.73954 -0.051,-0.86265 -0.17776,-1.47174 -0.38032,-1.82728 -0.25358,-0.50712 -0.7607,-0.93844 -1.52277,-1.29398 -0.70968,-0.35415 -1.47172,-0.68488 -2.28339,-0.98943 -0.10061,-0.051 -0.17776,-0.0758 -0.22874,-0.0758 -0.051,-0.051 -0.10061,-0.0758 -0.15159,-0.0758 -0.25358,-0.10198 -0.50712,-0.20395 -0.76069,-0.30455 -0.25492,-0.10197 -0.5085,-0.20257 -0.76204,-0.30454 l -1.29399,-0.68489 h 19.8658 l -2.13046,0.91364 c -0.15296,0.10059 -0.30455,0.17639 -0.45748,0.22738 -0.10061,0.051 -0.2274,0.10197 -0.38037,0.15296 -0.81167,0.35415 -1.54753,0.70969 -2.20761,1.06522 -0.60769,0.30455 -1.1672,0.71107 -1.67432,1.21819 -0.25354,0.25356 -0.4561,0.86265 -0.60907,1.8259 -0.10061,0.91364 -0.17639,1.90307 -0.2274,2.96829 -0.051,0.6091 -0.0772,1.21819 -0.0772,1.82728 v 46.27729 z m 0,0"
         id="path829"
         inkscape:connector-curvature="0" />
    </g>
    <path
       inkscape:connector-curvature="0"
       id="path831"
       d="m 171.60432,32.72898 c 0.25358,1.737705 0.5085,3.486435 0.7662,5.24619 0.18602,1.745974 0.3266,3.494705 0.49887,5.259973 0.20806,1.712898 0.23149,3.672469 0.31418,5.565895 0.0386,0.952225 0.0744,1.908584 0.11299,2.866319 l 0.0275,0.719335 0.006,0.147451 c 0,0.03305 0,0.0689 0,0.06752 v 1.740461 c 0.0303,7.441406 -0.55672,15.028884 -1.83554,22.608096 -0.65179,3.786847 -1.51861,7.557159 -2.53972,11.309558 -1.07901,3.733105 -2.34266,7.435896 -3.82683,11.072537 -1.52273,3.596685 -3.28387,7.209905 -5.17451,10.511675 -0.50574,0.86678 -1.08313,1.77078 -1.62196,2.65548 l -0.41205,0.66696 -0.20531,0.33487 c -0.004,0.007 -0.0372,0.0592 -0.0565,0.0923 l -0.0937,0.13504 -0.84472,1.22508 c -0.56776,0.8158 -1.12036,1.64124 -1.69775,2.45291 l -1.83141,2.37024 -0.92054,1.1851 -0.98252,1.13964 -1.96649,2.28478 -2.09183,2.18419 -1.04595,1.09418 -1.10243,1.04316 -2.21036,2.08497 -2.31373,1.98024 -1.1617,0.98944 c -0.38858,0.32659 -0.80338,0.62287 -1.20301,0.93706 l -2.42534,1.86449 c -3.32384,2.35782 -6.72758,4.64812 -10.35047,6.56635 -1.77077,1.03353 -3.64077,1.87275 -5.47906,2.78502 -0.92054,0.45337 -1.88105,0.81441 -2.81947,1.22782 -0.94672,0.39275 -1.87826,0.83096 -2.84978,1.15618 l -2.88975,1.05282 c -0.47818,0.18741 -0.97014,0.32935 -1.46073,0.47819 l -1.46898,0.44649 c -1.96922,0.65181 -3.90399,1.06797 -5.84978,1.56131 -0.46991,0.13091 -1.00046,0.22461 -1.52824,0.32107 l -1.573725,0.29078 -1.57372,0.29215 -0.392741,0.073 -0.169499,0.0317 c -0.03306,0.004 -0.106108,0.0124 -0.117133,0.0138 l -0.746897,0.091 c -0.996322,0.113 -1.989886,0.26045 -2.988963,0.35003 l -3.00688,0.16812 c -8.036719,0.20394 -16.128559,-1.22646 -23.74222,-3.99356 -3.808899,-1.36977 -7.539249,-2.9807 -11.10699,-4.89618 -3.570495,-1.89341 -7.041776,-4.01836 -10.310481,-6.25629 -6.66557,-4.67155 -12.78406,-9.84746 -18.475356,-15.34307 -2.848406,-2.74092 -5.539716,-5.59208 -8.151097,-8.46668 -0.636654,-0.73173 -1.27193,-1.46347 -1.905829,-2.19108 l -0.949816,-1.09279 -0.916397,-1.11621 c -0.610471,-0.74277 -1.218184,-1.48415 -1.824521,-2.22278 -0.584288,-0.75654 -1.1672,-1.51033 -1.750109,-2.26274 l -0.87092,-1.12723 -0.8337128,-1.14791 C 9.1089192,102.58724 8.5549487,101.82381 8.0037334,101.06313 7.4759461,100.28454 6.950914,99.510085 6.4258819,98.737004 5.8994704,97.965303 5.3771935,97.193601 4.8948792,96.399851 4.40292,95.61437 3.9109608,94.830265 3.4203775,94.048919 2.9380668,93.262059 2.4957152,92.458664 2.0326943,91.667669 1.0887386,90.095328 0.27845042,88.467865 -0.57042118,86.872096 -1.0169038,85.992907 -1.4454723,85.110962 -1.8602649,84.226263 L 167.29384,15.321601 c 1.83829,5.495615 3.28108,11.324717 4.31048,17.407379 m 12.61731,19.558494 v -0.179145 l -0.008,-0.720714 c -0.0109,-0.957735 -0.0219,-1.914095 -0.0332,-2.867699 -0.0346,-1.919605 0,-3.756529 -0.16948,-5.798785 -0.13091,-1.989885 -0.2384,-3.982529 -0.39687,-5.9421 -0.2274,-1.929254 -0.45339,-3.847483 -0.67938,-5.753308 -0.98531,-7.005945 -2.497,-13.788652 -4.51584,-20.235112 L 180.982,9.7474333 c 0.76345,-0.3114357 1.13002,-1.1823559 0.81859,-1.9444088 -0.31009,-0.7634358 -1.18237,-1.1286137 -1.94307,-0.8185573 l -2.36883,0.9646285 c -2.20761,-6.4960712 -5.0395,-12.5690878 -8.20621,-18.1542767 -3.37206,-5.924186 -7.17546,-11.283375 -11.18415,-16.044499 -3.99771,-4.776279 -8.24897,-8.902125 -12.45609,-12.502938 -4.21407,-3.600817 -8.4033,-6.665574 -12.41474,-9.28109 -4.03077,-2.586577 -7.87277,-4.732182 -11.41981,-6.527764 -5.13319,-2.571422 -9.76617,-5.341278 -13.77213,-8.028454 -7.98167,-6.183256 -9.0965,-7.824498 -9.128193,-8.299922 -0.210842,-3.212208 -1.694988,-4.189237 -2.677527,-4.630209 -3.170869,-1.422135 -6.819914,1.090027 -7.963684,1.999534 -0.844737,0.654569 -12.620074,10.216776 -6.471267,28.258051 1.238857,3.635265 2.4722,6.024784 4.787304,6.705533 0.418924,0.122646 0.819933,0.177768 1.209918,0.177768 1.812121,0 3.399621,-1.141018 4.941644,-2.481848 4.409723,-3.835079 8.863545,-3.835079 12.170835,-3.570496 3.3073,0.264583 6.5636,0.795129 10.66049,2.709224 3.16812,1.497926 6.61462,3.300402 10.23885,5.48459 3.60217,2.213131 7.36974,4.817622 11.16347,7.883758 7.60952,6.092307 15.22321,14.228244 21.45468,24.5097868 2.99998,4.9747171 5.72713,10.4248586 7.87964,16.3490452 L -3.08131,81.501883 c -1.653646,-3.847482 -3.00688,-7.741817 -4.029385,-11.637532 -1.20165,-4.948534 -1.810742,-9.771669 -1.803852,-14.436326 0.01792,-10.970564 3.435449,-21.078473 10.15752,-30.041233 6.8419593,-9.11986 14.815287,-14.297149 23.700878,-15.38442 14.476292,-1.7693996 26.67193,8.00778 26.793197,8.106999 0.638034,0.520897 1.576476,0.425813 2.097373,-0.210841 0.522277,-0.638031 0.427193,-1.577852 -0.209462,-2.098753 C 53.090282,15.362939 40.36272,5.1268734 24.610366,7.0382129 14.875905,8.2205687 6.2121797,13.791978 -1.1437909,23.59672 -11.689917,37.656844 -14.463907,54.441348 -9.43131,72.767878 c 0.879186,3.341744 1.98713,6.675215 3.299023,9.976997 l -4.623319,1.882401 c -0.762056,0.311436 -1.128614,1.182356 -0.818554,1.944412 0.235645,0.578774 0.79375,0.930173 1.382173,0.930173 0.187413,0 0.377582,-0.03583 0.56224,-0.111619 l 4.641232,-1.889291 c 0.421679,0.967384 0.854382,1.932009 1.310513,2.892503 0.8295783,1.67156 1.6247077,3.378948 2.5535045,5.025704 0.45475182,0.829578 0.89021362,1.672939 1.36563812,2.497007 0.4823107,0.818554 0.96738018,1.641242 1.45244958,2.46531 0.4768039,0.830957 0.9908117,1.639865 1.5117092,2.448775 0.5181424,0.81028 1.0376641,1.62333 1.5585617,2.43913 0.5457014,0.79926 1.0941614,1.5999 1.6426216,2.40192 l 0.8268229,1.20578 0.8640304,1.18374 c 0.576019,0.78961 1.1547933,1.58061 1.7349505,2.37573 0.6022025,0.77584 1.2057805,1.55443 1.8121175,2.3344 l 0.910886,1.17271 0.943956,1.14928 c 0.63114,0.76619 1.26366,1.53376 1.897556,2.30546 2.60036,3.0248 5.287532,6.0303 8.138696,8.92693 5.678894,5.79741 11.895226,11.34953 18.609028,16.33389 3.469898,2.52181 7.025238,4.82865 10.767988,6.94807 3.726215,2.13182 7.664651,3.96737 11.728486,5.55487 8.115264,3.19981 16.962271,5.05327 25.964994,5.06705 l 3.377573,-0.0965 c 1.124479,-0.0703 2.246203,-0.2012 3.372058,-0.30042 l 0.843361,-0.0813 c 0.112998,-0.0138 0.0441,0.003 0.307301,-0.0372 l 0.198438,-0.0317 0.394119,-0.062 1.581986,-0.24805 1.58061,-0.24942 c 0.52641,-0.0813 1.04869,-0.15848 1.61368,-0.29077 2.21313,-0.48094 4.46761,-0.91915 6.57876,-1.55305 l 1.60955,-0.44235 c 0.53744,-0.14745 1.07623,-0.28939 1.5999,-0.4768 l 3.16399,-1.05558 c 1.06521,-0.32797 2.08633,-0.76894 3.12399,-1.1672 1.03078,-0.41892 2.08223,-0.78824 3.09372,-1.24988 2.01743,-0.9288 4.07208,-1.79283 6.0234,-2.8553 3.98392,-1.97886 7.74731,-4.35322 11.43081,-6.82404 l 2.69271,-1.95406 c 0.4451,-0.32935 0.904,-0.64216 1.33806,-0.98667 l 1.29536,-1.0418 c 0.8599,-0.69729 1.7308,-1.38493 2.58244,-2.09186 l 2.4777,-2.21175 1.23613,-1.10932 1.17959,-1.16583 2.35782,-2.33439 2.23241,-2.45153 1.11348,-1.22645 1.05279,-1.27882 c 0.70005,-0.85577 1.39735,-1.71015 2.09462,-2.56453 0.66562,-0.87919 1.30641,-1.77767 1.9582,-2.66651 l 0.97289,-1.33669 0.12128,-0.16675 0.16951,-0.25356 0.21358,-0.32797 0.42996,-0.65594 c 0.57189,-0.88608 1.14378,-1.72531 1.71567,-2.64308 2.37158,-3.87229 4.3422,-7.68394 6.14602,-11.6334 1.746,-3.956347 3.24252,-7.981598 4.53376,-12.035787 1.22922,-4.069345 2.2848,-8.156607 3.10472,-12.249379 1.61506,-8.188304 2.46395,-16.354559 2.65134,-24.338912 l 0.04,-1.49655 0.0109,-0.373447 c 0,-0.124026 0.006,0.01517 0,-0.325219"
       style="fill:#ae1e23;fill-opacity:1;fill-rule:nonzero;stroke:none;stroke-width:0.35277778" />
  </g>
</svg>
